<mxfile host="Electron" modified="2024-03-17T19:28:18.771Z" agent="Mozilla/5.0 (Windows NT 10.0; Win64; x64) AppleWebKit/537.36 (KHTML, like Gecko) draw.io/23.1.5 Chrome/120.0.6099.109 Electron/28.1.0 Safari/537.36" etag="L0NVJNJjkoNlQ1C4o-lC" version="23.1.5" type="device">
  <diagram name="Страница — 1" id="1pUtlrG9UKzYiyhsukKt">
    <mxGraphModel dx="2739" dy="1125" grid="1" gridSize="10" guides="1" tooltips="1" connect="1" arrows="1" fold="1" page="1" pageScale="1" pageWidth="827" pageHeight="1169" math="0" shadow="0">
      <root>
        <mxCell id="0" />
        <mxCell id="1" parent="0" />
        <mxCell id="Ic0sPTGeypcjQYBeRvuZ-4" style="edgeStyle=orthogonalEdgeStyle;rounded=0;orthogonalLoop=1;jettySize=auto;html=1;dashed=1;endArrow=none;endFill=0;" parent="1" source="Ic0sPTGeypcjQYBeRvuZ-20" edge="1">
          <mxGeometry relative="1" as="geometry">
            <mxPoint x="110" y="720" as="targetPoint" />
          </mxGeometry>
        </mxCell>
        <mxCell id="Ic0sPTGeypcjQYBeRvuZ-1" value="Пользователь" style="shape=umlActor;verticalLabelPosition=bottom;verticalAlign=top;html=1;outlineConnect=0;" parent="1" vertex="1">
          <mxGeometry x="95" y="10" width="30" height="60" as="geometry" />
        </mxCell>
        <mxCell id="Ic0sPTGeypcjQYBeRvuZ-31" style="rounded=0;orthogonalLoop=1;jettySize=auto;html=1;exitX=1;exitY=0;exitDx=0;exitDy=0;entryX=0;entryY=0;entryDx=0;entryDy=0;" parent="1" source="Ic0sPTGeypcjQYBeRvuZ-2" target="Ic0sPTGeypcjQYBeRvuZ-11" edge="1">
          <mxGeometry relative="1" as="geometry" />
        </mxCell>
        <mxCell id="Ic0sPTGeypcjQYBeRvuZ-5" style="edgeStyle=orthogonalEdgeStyle;rounded=0;orthogonalLoop=1;jettySize=auto;html=1;dashed=1;endArrow=none;endFill=0;" parent="1" source="Ic0sPTGeypcjQYBeRvuZ-29" edge="1">
          <mxGeometry relative="1" as="geometry">
            <mxPoint x="767" y="720" as="targetPoint" />
            <mxPoint x="766.5" y="69" as="sourcePoint" />
          </mxGeometry>
        </mxCell>
        <mxCell id="Ic0sPTGeypcjQYBeRvuZ-6" style="edgeStyle=orthogonalEdgeStyle;rounded=0;orthogonalLoop=1;jettySize=auto;html=1;dashed=1;endArrow=none;endFill=0;" parent="1" source="Ic0sPTGeypcjQYBeRvuZ-23" edge="1">
          <mxGeometry relative="1" as="geometry">
            <mxPoint x="540" y="720" as="targetPoint" />
            <mxPoint x="539.5" y="69" as="sourcePoint" />
          </mxGeometry>
        </mxCell>
        <mxCell id="Ic0sPTGeypcjQYBeRvuZ-7" style="edgeStyle=orthogonalEdgeStyle;rounded=0;orthogonalLoop=1;jettySize=auto;html=1;dashed=1;endArrow=none;endFill=0;" parent="1" source="Ic0sPTGeypcjQYBeRvuZ-21" edge="1">
          <mxGeometry relative="1" as="geometry">
            <mxPoint x="310" y="720" as="targetPoint" />
            <mxPoint x="309.5" y="70" as="sourcePoint" />
          </mxGeometry>
        </mxCell>
        <mxCell id="Ic0sPTGeypcjQYBeRvuZ-8" value=":Клиент" style="rounded=0;whiteSpace=wrap;html=1;" parent="1" vertex="1">
          <mxGeometry x="250" y="10" width="120" height="60" as="geometry" />
        </mxCell>
        <mxCell id="Ic0sPTGeypcjQYBeRvuZ-9" value=":Сервер" style="rounded=0;whiteSpace=wrap;html=1;" parent="1" vertex="1">
          <mxGeometry x="480" y="10" width="120" height="60" as="geometry" />
        </mxCell>
        <mxCell id="Ic0sPTGeypcjQYBeRvuZ-10" value=":База данных" style="rounded=0;whiteSpace=wrap;html=1;" parent="1" vertex="1">
          <mxGeometry x="707" y="10" width="120" height="60" as="geometry" />
        </mxCell>
        <mxCell id="Ic0sPTGeypcjQYBeRvuZ-15" value="" style="edgeStyle=orthogonalEdgeStyle;rounded=0;orthogonalLoop=1;jettySize=auto;html=1;dashed=1;endArrow=none;endFill=0;" parent="1" target="Ic0sPTGeypcjQYBeRvuZ-14" edge="1">
          <mxGeometry relative="1" as="geometry">
            <mxPoint x="309.5" y="1170" as="targetPoint" />
            <mxPoint x="309.5" y="70" as="sourcePoint" />
          </mxGeometry>
        </mxCell>
        <mxCell id="Ic0sPTGeypcjQYBeRvuZ-14" value="" style="rounded=0;whiteSpace=wrap;html=1;" parent="1" vertex="1">
          <mxGeometry x="302.5" y="300" width="15" height="160" as="geometry" />
        </mxCell>
        <mxCell id="Ic0sPTGeypcjQYBeRvuZ-18" value="" style="edgeStyle=orthogonalEdgeStyle;rounded=0;orthogonalLoop=1;jettySize=auto;html=1;dashed=1;endArrow=none;endFill=0;" parent="1" target="Ic0sPTGeypcjQYBeRvuZ-17" edge="1">
          <mxGeometry relative="1" as="geometry">
            <mxPoint x="766.5" y="1169" as="targetPoint" />
            <mxPoint x="766.5" y="69" as="sourcePoint" />
          </mxGeometry>
        </mxCell>
        <mxCell id="Ic0sPTGeypcjQYBeRvuZ-17" value="" style="rounded=0;whiteSpace=wrap;html=1;" parent="1" vertex="1">
          <mxGeometry x="759.5" y="220" width="15" height="60" as="geometry" />
        </mxCell>
        <mxCell id="Ic0sPTGeypcjQYBeRvuZ-22" value="" style="edgeStyle=orthogonalEdgeStyle;rounded=0;orthogonalLoop=1;jettySize=auto;html=1;dashed=1;endArrow=none;endFill=0;" parent="1" source="Ic0sPTGeypcjQYBeRvuZ-14" target="Ic0sPTGeypcjQYBeRvuZ-21" edge="1">
          <mxGeometry relative="1" as="geometry">
            <mxPoint x="309.5" y="1170" as="targetPoint" />
            <mxPoint x="310" y="460" as="sourcePoint" />
          </mxGeometry>
        </mxCell>
        <mxCell id="Ic0sPTGeypcjQYBeRvuZ-21" value="" style="rounded=0;whiteSpace=wrap;html=1;" parent="1" vertex="1">
          <mxGeometry x="302.5" y="485" width="15" height="100" as="geometry" />
        </mxCell>
        <mxCell id="Ic0sPTGeypcjQYBeRvuZ-24" value="" style="edgeStyle=orthogonalEdgeStyle;rounded=0;orthogonalLoop=1;jettySize=auto;html=1;dashed=1;endArrow=none;endFill=0;" parent="1" target="Ic0sPTGeypcjQYBeRvuZ-23" edge="1">
          <mxGeometry relative="1" as="geometry">
            <mxPoint x="539.5" y="1169" as="targetPoint" />
            <mxPoint x="539.5" y="69" as="sourcePoint" />
          </mxGeometry>
        </mxCell>
        <mxCell id="Ic0sPTGeypcjQYBeRvuZ-23" value="" style="rounded=0;whiteSpace=wrap;html=1;" parent="1" vertex="1">
          <mxGeometry x="532.5" y="585" width="15" height="100" as="geometry" />
        </mxCell>
        <mxCell id="Ic0sPTGeypcjQYBeRvuZ-25" value="" style="rounded=0;whiteSpace=wrap;html=1;" parent="1" vertex="1">
          <mxGeometry x="102.5" y="300" width="15" height="60" as="geometry" />
        </mxCell>
        <mxCell id="Ic0sPTGeypcjQYBeRvuZ-28" value="" style="edgeStyle=orthogonalEdgeStyle;rounded=0;orthogonalLoop=1;jettySize=auto;html=1;dashed=1;endArrow=none;endFill=0;" parent="1" source="Ic0sPTGeypcjQYBeRvuZ-17" target="Ic0sPTGeypcjQYBeRvuZ-27" edge="1">
          <mxGeometry relative="1" as="geometry">
            <mxPoint x="766.5" y="1169" as="targetPoint" />
            <mxPoint x="767" y="280" as="sourcePoint" />
          </mxGeometry>
        </mxCell>
        <mxCell id="Ic0sPTGeypcjQYBeRvuZ-27" value="" style="rounded=0;whiteSpace=wrap;html=1;" parent="1" vertex="1">
          <mxGeometry x="759.5" y="400" width="15" height="60" as="geometry" />
        </mxCell>
        <mxCell id="Ic0sPTGeypcjQYBeRvuZ-30" value="" style="edgeStyle=orthogonalEdgeStyle;rounded=0;orthogonalLoop=1;jettySize=auto;html=1;dashed=1;endArrow=none;endFill=0;" parent="1" source="Ic0sPTGeypcjQYBeRvuZ-27" target="Ic0sPTGeypcjQYBeRvuZ-29" edge="1">
          <mxGeometry relative="1" as="geometry">
            <mxPoint x="766.5" y="1169" as="targetPoint" />
            <mxPoint x="767" y="460" as="sourcePoint" />
          </mxGeometry>
        </mxCell>
        <mxCell id="Ic0sPTGeypcjQYBeRvuZ-29" value="" style="rounded=0;whiteSpace=wrap;html=1;" parent="1" vertex="1">
          <mxGeometry x="759.5" y="625" width="15" height="60" as="geometry" />
        </mxCell>
        <mxCell id="Ic0sPTGeypcjQYBeRvuZ-33" style="rounded=0;orthogonalLoop=1;jettySize=auto;html=1;entryX=0;entryY=0;entryDx=0;entryDy=0;exitX=0.18;exitY=0.379;exitDx=0;exitDy=0;exitPerimeter=0;" parent="1" source="Ic0sPTGeypcjQYBeRvuZ-11" edge="1">
          <mxGeometry relative="1" as="geometry">
            <mxPoint x="320" y="180" as="sourcePoint" />
            <mxPoint x="532.5" y="180" as="targetPoint" />
          </mxGeometry>
        </mxCell>
        <mxCell id="Ic0sPTGeypcjQYBeRvuZ-35" style="rounded=0;orthogonalLoop=1;jettySize=auto;html=1;entryX=0;entryY=0;entryDx=0;entryDy=0;" parent="1" edge="1">
          <mxGeometry relative="1" as="geometry">
            <mxPoint x="547" y="220" as="sourcePoint" />
            <mxPoint x="759.5" y="220" as="targetPoint" />
          </mxGeometry>
        </mxCell>
        <mxCell id="Ic0sPTGeypcjQYBeRvuZ-36" style="rounded=0;orthogonalLoop=1;jettySize=auto;html=1;entryX=0;entryY=0;entryDx=0;entryDy=0;" parent="1" edge="1">
          <mxGeometry relative="1" as="geometry">
            <mxPoint x="547" y="400" as="sourcePoint" />
            <mxPoint x="759.5" y="400" as="targetPoint" />
          </mxGeometry>
        </mxCell>
        <mxCell id="Ic0sPTGeypcjQYBeRvuZ-37" style="rounded=0;orthogonalLoop=1;jettySize=auto;html=1;entryX=0;entryY=0;entryDx=0;entryDy=0;" parent="1" edge="1">
          <mxGeometry relative="1" as="geometry">
            <mxPoint x="547.5" y="624" as="sourcePoint" />
            <mxPoint x="760" y="624" as="targetPoint" />
          </mxGeometry>
        </mxCell>
        <mxCell id="Ic0sPTGeypcjQYBeRvuZ-11" value="" style="rounded=0;whiteSpace=wrap;html=1;" parent="1" vertex="1">
          <mxGeometry x="302.5" y="120" width="15" height="160" as="geometry" />
        </mxCell>
        <mxCell id="Ic0sPTGeypcjQYBeRvuZ-38" style="rounded=0;orthogonalLoop=1;jettySize=auto;html=1;entryX=0;entryY=0;entryDx=0;entryDy=0;" parent="1" edge="1">
          <mxGeometry relative="1" as="geometry">
            <mxPoint x="317.5" y="360" as="sourcePoint" />
            <mxPoint x="530" y="360" as="targetPoint" />
          </mxGeometry>
        </mxCell>
        <mxCell id="Ic0sPTGeypcjQYBeRvuZ-39" style="rounded=0;orthogonalLoop=1;jettySize=auto;html=1;entryX=0;entryY=0;entryDx=0;entryDy=0;" parent="1" edge="1">
          <mxGeometry relative="1" as="geometry">
            <mxPoint x="320" y="585" as="sourcePoint" />
            <mxPoint x="532.5" y="585" as="targetPoint" />
          </mxGeometry>
        </mxCell>
        <mxCell id="Ic0sPTGeypcjQYBeRvuZ-40" style="rounded=0;orthogonalLoop=1;jettySize=auto;html=1;exitX=1;exitY=0;exitDx=0;exitDy=0;entryX=0;entryY=0;entryDx=0;entryDy=0;" parent="1" edge="1">
          <mxGeometry relative="1" as="geometry">
            <mxPoint x="117.5" y="300" as="sourcePoint" />
            <mxPoint x="302.5" y="300" as="targetPoint" />
          </mxGeometry>
        </mxCell>
        <mxCell id="Ic0sPTGeypcjQYBeRvuZ-41" style="rounded=0;orthogonalLoop=1;jettySize=auto;html=1;exitX=1;exitY=0;exitDx=0;exitDy=0;entryX=0;entryY=0;entryDx=0;entryDy=0;" parent="1" edge="1">
          <mxGeometry relative="1" as="geometry">
            <mxPoint x="117.5" y="485" as="sourcePoint" />
            <mxPoint x="302.5" y="485" as="targetPoint" />
          </mxGeometry>
        </mxCell>
        <mxCell id="Ic0sPTGeypcjQYBeRvuZ-42" value="" style="edgeStyle=orthogonalEdgeStyle;rounded=0;orthogonalLoop=1;jettySize=auto;html=1;dashed=1;endArrow=none;endFill=0;" parent="1" source="Ic0sPTGeypcjQYBeRvuZ-25" target="Ic0sPTGeypcjQYBeRvuZ-20" edge="1">
          <mxGeometry relative="1" as="geometry">
            <mxPoint x="110" y="1170" as="targetPoint" />
            <mxPoint x="110" y="360" as="sourcePoint" />
          </mxGeometry>
        </mxCell>
        <mxCell id="Ic0sPTGeypcjQYBeRvuZ-20" value="" style="rounded=0;whiteSpace=wrap;html=1;" parent="1" vertex="1">
          <mxGeometry x="102.5" y="485" width="15" height="100" as="geometry" />
        </mxCell>
        <mxCell id="Ic0sPTGeypcjQYBeRvuZ-43" style="rounded=0;orthogonalLoop=1;jettySize=auto;html=1;exitX=1;exitY=0;exitDx=0;exitDy=0;entryX=0;entryY=0;entryDx=0;entryDy=0;" parent="1" edge="1">
          <mxGeometry relative="1" as="geometry">
            <mxPoint x="117.5" y="585" as="sourcePoint" />
            <mxPoint x="302.5" y="585" as="targetPoint" />
          </mxGeometry>
        </mxCell>
        <mxCell id="Ic0sPTGeypcjQYBeRvuZ-44" style="edgeStyle=orthogonalEdgeStyle;rounded=0;orthogonalLoop=1;jettySize=auto;html=1;dashed=1;" parent="1" edge="1">
          <mxGeometry relative="1" as="geometry">
            <mxPoint x="530" y="280" as="sourcePoint" />
            <mxPoint x="320" y="280" as="targetPoint" />
            <Array as="points">
              <mxPoint x="320" y="280" />
            </Array>
          </mxGeometry>
        </mxCell>
        <mxCell id="Ic0sPTGeypcjQYBeRvuZ-45" style="edgeStyle=orthogonalEdgeStyle;rounded=0;orthogonalLoop=1;jettySize=auto;html=1;dashed=1;" parent="1" edge="1">
          <mxGeometry relative="1" as="geometry">
            <mxPoint x="530.5" y="459" as="sourcePoint" />
            <mxPoint x="317.5" y="459" as="targetPoint" />
            <Array as="points">
              <mxPoint x="317.5" y="459" />
            </Array>
          </mxGeometry>
        </mxCell>
        <mxCell id="Ic0sPTGeypcjQYBeRvuZ-48" style="edgeStyle=orthogonalEdgeStyle;rounded=0;orthogonalLoop=1;jettySize=auto;html=1;dashed=1;" parent="1" edge="1">
          <mxGeometry relative="1" as="geometry">
            <mxPoint x="759.5" y="684" as="sourcePoint" />
            <mxPoint x="546.5" y="684" as="targetPoint" />
            <Array as="points">
              <mxPoint x="546.5" y="684" />
            </Array>
          </mxGeometry>
        </mxCell>
        <mxCell id="Ic0sPTGeypcjQYBeRvuZ-49" style="edgeStyle=orthogonalEdgeStyle;rounded=0;orthogonalLoop=1;jettySize=auto;html=1;dashed=1;" parent="1" edge="1">
          <mxGeometry relative="1" as="geometry">
            <mxPoint x="760.5" y="460" as="sourcePoint" />
            <mxPoint x="547.5" y="460" as="targetPoint" />
            <Array as="points">
              <mxPoint x="547.5" y="460" />
            </Array>
          </mxGeometry>
        </mxCell>
        <mxCell id="Ic0sPTGeypcjQYBeRvuZ-50" style="edgeStyle=orthogonalEdgeStyle;rounded=0;orthogonalLoop=1;jettySize=auto;html=1;dashed=1;" parent="1" edge="1">
          <mxGeometry relative="1" as="geometry">
            <mxPoint x="760" y="290" as="sourcePoint" />
            <mxPoint x="546.5" y="280" as="targetPoint" />
            <Array as="points">
              <mxPoint x="546.5" y="280" />
            </Array>
          </mxGeometry>
        </mxCell>
        <mxCell id="Ic0sPTGeypcjQYBeRvuZ-16" value="" style="rounded=0;whiteSpace=wrap;html=1;" parent="1" vertex="1">
          <mxGeometry x="532.5" y="180" width="15" height="100" as="geometry" />
        </mxCell>
        <mxCell id="Ic0sPTGeypcjQYBeRvuZ-19" value="" style="rounded=0;whiteSpace=wrap;html=1;" parent="1" vertex="1">
          <mxGeometry x="532.5" y="360" width="15" height="100" as="geometry" />
        </mxCell>
        <mxCell id="Ic0sPTGeypcjQYBeRvuZ-26" value="" style="edgeStyle=orthogonalEdgeStyle;rounded=0;orthogonalLoop=1;jettySize=auto;html=1;dashed=1;endArrow=none;endFill=0;" parent="1" source="Ic0sPTGeypcjQYBeRvuZ-1" target="Ic0sPTGeypcjQYBeRvuZ-25" edge="1">
          <mxGeometry relative="1" as="geometry">
            <mxPoint x="110" y="1170" as="targetPoint" />
            <mxPoint x="110" y="70" as="sourcePoint" />
          </mxGeometry>
        </mxCell>
        <mxCell id="Ic0sPTGeypcjQYBeRvuZ-2" value="" style="rounded=0;whiteSpace=wrap;html=1;" parent="1" vertex="1">
          <mxGeometry x="102.5" y="120" width="15" height="60" as="geometry" />
        </mxCell>
        <mxCell id="Ic0sPTGeypcjQYBeRvuZ-51" value="1. Ввести личные данные" style="text;html=1;align=center;verticalAlign=middle;whiteSpace=wrap;rounded=0;" parent="1" vertex="1">
          <mxGeometry x="125" y="90" width="160" height="30" as="geometry" />
        </mxCell>
        <mxCell id="Ic0sPTGeypcjQYBeRvuZ-53" value="6. Ввести личные данные" style="text;html=1;align=center;verticalAlign=middle;whiteSpace=wrap;rounded=0;" parent="1" vertex="1">
          <mxGeometry x="125" y="270" width="160" height="30" as="geometry" />
        </mxCell>
        <mxCell id="Ic0sPTGeypcjQYBeRvuZ-54" value="11. Ввести данные о путешествии" style="text;html=1;align=center;verticalAlign=middle;whiteSpace=wrap;rounded=0;" parent="1" vertex="1">
          <mxGeometry x="125" y="450" width="160" height="30" as="geometry" />
        </mxCell>
        <mxCell id="Ic0sPTGeypcjQYBeRvuZ-57" value="12. Нажать на кнопку &quot;Сохранить&quot;" style="text;html=1;align=center;verticalAlign=middle;whiteSpace=wrap;rounded=0;" parent="1" vertex="1">
          <mxGeometry x="125" y="555" width="160" height="30" as="geometry" />
        </mxCell>
        <mxCell id="Ic0sPTGeypcjQYBeRvuZ-58" value="2. Передача и проверка корректности ввода данных" style="text;html=1;align=center;verticalAlign=middle;whiteSpace=wrap;rounded=0;" parent="1" vertex="1">
          <mxGeometry x="340" y="150" width="160" height="30" as="geometry" />
        </mxCell>
        <mxCell id="Ic0sPTGeypcjQYBeRvuZ-59" value="5. Перейти на страницу авторизации" style="text;html=1;align=center;verticalAlign=middle;whiteSpace=wrap;rounded=0;" parent="1" vertex="1">
          <mxGeometry x="350" y="250" width="160" height="30" as="geometry" />
        </mxCell>
        <mxCell id="Ic0sPTGeypcjQYBeRvuZ-61" value="3. Сохранение и обработка данных" style="text;html=1;align=center;verticalAlign=middle;whiteSpace=wrap;rounded=0;" parent="1" vertex="1">
          <mxGeometry x="570" y="185" width="160" height="30" as="geometry" />
        </mxCell>
        <mxCell id="Ic0sPTGeypcjQYBeRvuZ-63" value="4. Успешное сохранение данных" style="text;html=1;align=center;verticalAlign=middle;whiteSpace=wrap;rounded=0;" parent="1" vertex="1">
          <mxGeometry x="570" y="250" width="160" height="30" as="geometry" />
        </mxCell>
        <mxCell id="Ic0sPTGeypcjQYBeRvuZ-65" value="8. Проверка данных" style="text;html=1;align=center;verticalAlign=middle;whiteSpace=wrap;rounded=0;" parent="1" vertex="1">
          <mxGeometry x="570" y="365" width="160" height="30" as="geometry" />
        </mxCell>
        <mxCell id="Ic0sPTGeypcjQYBeRvuZ-66" value="9. Успешная проверка данных" style="text;html=1;align=center;verticalAlign=middle;whiteSpace=wrap;rounded=0;" parent="1" vertex="1">
          <mxGeometry x="570" y="430" width="160" height="30" as="geometry" />
        </mxCell>
        <mxCell id="Ic0sPTGeypcjQYBeRvuZ-67" value="10. Перейти на главную страницу" style="text;html=1;align=center;verticalAlign=middle;whiteSpace=wrap;rounded=0;" parent="1" vertex="1">
          <mxGeometry x="350" y="430" width="160" height="30" as="geometry" />
        </mxCell>
        <mxCell id="Ic0sPTGeypcjQYBeRvuZ-68" value="7. Передача и проверка корректности ввода данных" style="text;html=1;align=center;verticalAlign=middle;whiteSpace=wrap;rounded=0;" parent="1" vertex="1">
          <mxGeometry x="350" y="330" width="160" height="30" as="geometry" />
        </mxCell>
        <mxCell id="Ic0sPTGeypcjQYBeRvuZ-70" value="13. Отправить запрос на создание путешествияя" style="text;html=1;align=center;verticalAlign=middle;whiteSpace=wrap;rounded=0;" parent="1" vertex="1">
          <mxGeometry x="330" y="555" width="190" height="30" as="geometry" />
        </mxCell>
        <mxCell id="Ic0sPTGeypcjQYBeRvuZ-71" value="14. Создать путешествие" style="text;html=1;align=center;verticalAlign=middle;whiteSpace=wrap;rounded=0;" parent="1" vertex="1">
          <mxGeometry x="555" y="595" width="190" height="30" as="geometry" />
        </mxCell>
        <mxCell id="Ic0sPTGeypcjQYBeRvuZ-72" value="15. Успешное создание" style="text;html=1;align=center;verticalAlign=middle;whiteSpace=wrap;rounded=0;" parent="1" vertex="1">
          <mxGeometry x="555" y="655" width="190" height="30" as="geometry" />
        </mxCell>
        <mxCell id="Ic0sPTGeypcjQYBeRvuZ-73" value="Регистрация:" style="text;html=1;align=center;verticalAlign=middle;whiteSpace=wrap;rounded=0;fontSize=14;fontStyle=1" parent="1" vertex="1">
          <mxGeometry x="-60" y="90" width="60" height="30" as="geometry" />
        </mxCell>
        <mxCell id="Ic0sPTGeypcjQYBeRvuZ-74" value="Авторизация:" style="text;html=1;align=center;verticalAlign=middle;whiteSpace=wrap;rounded=0;fontSize=14;fontStyle=1" parent="1" vertex="1">
          <mxGeometry x="-60" y="280" width="60" height="30" as="geometry" />
        </mxCell>
        <mxCell id="Ic0sPTGeypcjQYBeRvuZ-75" value="Создание путешествия:" style="text;html=1;align=center;verticalAlign=middle;whiteSpace=wrap;rounded=0;fontSize=14;fontStyle=1" parent="1" vertex="1">
          <mxGeometry x="-60" y="470" width="60" height="30" as="geometry" />
        </mxCell>
      </root>
    </mxGraphModel>
  </diagram>
</mxfile>
